<svg xmlns="http://www.w3.org/2000/svg" xmlns:xlink="http://www.w3.org/1999/xlink" viewBox="0 0 837.63 351.97"><defs><style>.cls-1{fill:none;}.cls-2{clip-path:url(#clip-path);}.cls-3{clip-path:url(#clip-path-2);}.cls-4{fill:#4fb6e3;}.cls-5{clip-path:url(#clip-path-3);}.cls-6{fill:#38417f;}.cls-7{fill:#348a19;}</style><clipPath id="clip-path" transform="translate(-18.49 -16.57)"><polygon id="_Masque_pointe_K" data-name="&lt;Masque&gt; pointe K" class="cls-1" points="278.15 368.54 99.59 194.8 16.26 132.9 16.26 421.81 295.42 426.41 278.15 368.54"/></clipPath><clipPath id="clip-path-2" transform="translate(-18.49 -16.57)"><polyline id="_Masque_coupage_K" data-name="&lt;Masque&gt; coupage K" class="cls-1" points="189.55 163.98 72.59 275.98 16.26 132.9 16.26 421.81 415.24 426.41 283.59 73.92 189.55 163.98"/></clipPath><clipPath id="clip-path-3" transform="translate(-18.49 -16.57)"><polygon class="cls-1" points="234.27 319.37 284.83 368.54 284.83 377.23 516.57 377.23 513.51 221.46 231.97 221.46 234.27 319.37"/></clipPath></defs><title>KanFF_Logo</title><g id="Calque_2" data-name="Calque 2"><g class="cls-2"><g class="cls-3"><path class="cls-4" d="M200.23,95.68h48.82L130.7,225.18,278.15,368.53H224.83L85.38,233.77V368.53H46.32V95.68H85.38V220.49Z" transform="translate(-18.49 -16.57)"/></g></g></g><g id="Calque_1" data-name="Calque 1"><g class="cls-5"><path class="cls-4" d="M284.78,244.36h12.43l55.36,124.18h-18.1L318,332H265.34l-15.42,36.59H231.75Zm26,71.85L290.83,271.5l-18.47,44.71Z" transform="translate(-18.49 -16.57)"/><path class="cls-4" d="M464.19,245.07H481V368.54h-15.2l-82.55-95.09v95.09H366.62V245.07h14.32L464.19,341Z" transform="translate(-18.49 -16.57)"/></g><polygon class="cls-6" points="0 104.81 56.33 247.89 315.19 0 313.45 0 77.57 162.21 0 104.81"/><path class="cls-7" d="M498.93,368.53l2.41-34.18q.74-11.58,1.29-25.21L506.71,198l1.11-44.83q.38-14.19.37-24.84V113.57q44.3.2,83.72.19l46.16-.19h27.66q-1.5,17.31-1.5,26.15-23.72-1.49-66.87-1.49l-54.91.37-2.79,88,35.86.74q50.79,0,73.77-.74-1.12,13.81-1.12,25.59-34.56-.75-58.27-.75-23.35,0-51.73.75-2.05,68.73-2,116.36L518,368.16Q516.87,368.16,498.93,368.53Z" transform="translate(-18.49 -16.57)"/><path class="cls-7" d="M689.32,368.53l2.41-34.18q.74-11.58,1.3-25.21L697.11,198l1.11-44.83q.36-14.19.37-24.84V113.57q44.28.2,83.72.19l46.15-.19h27.66q-1.5,17.31-1.5,26.15-23.72-1.49-66.86-1.49l-54.92.37-2.79,88,35.86.74q50.8,0,73.77-.74-1.12,13.81-1.12,25.59-34.54-.75-58.27-.75-23.34,0-51.73.75-2,68.73-2,116.36l-18.13-.37Q707.27,368.16,689.32,368.53Z" transform="translate(-18.49 -16.57)"/></g></svg>